#!OML:ASF E:\id_vita\Project 1\Capture day 1\Session 1\Male1.ASF
:FULLY-SPECIFIED
:DEGREES
1752
root 18.9547 16.8082 -4.95358 -7.23635 233.363 8.42333
lowerback 3.46405 -1.08135 1.24595
upperback 2.91166 -1.53906 2.35189
thorax 1.07978 -0.821299 1.75089
lowerneck -6.84964 -4.1181 -2.75133
upperneck 4.1213 -5.31576 1.2246
head 2.61416 -2.65066 0.631987
rclavicle 5.41844e-014 1.4561e-014
rhumerus -29.5414 -7.40303 -79.2216
rradius 26.3776
rwrist 8.32266
rhand -23.2059 37.1485
rfingers 7.12502
rthumb 3.24426 7.19346
lclavicle 5.41844e-014 1.4561e-014
lhumerus -21.648 7.38916 83.9551
lradius 37.2816
lwrist 3.97619
lhand -10.8254 47.0121
lfingers 7.12502
lthumb 15.1887 76.4346
rfemur -8.96505 -10.5654 29.3014
rtibia 22.4535
rfoot -13.5084 -9.47171
rtoes 5.39968
lfemur -19.3174 2.44966 -10.995
ltibia 61.6512
lfoot -6.99161 -12.2089
ltoes -1.27249
1753
root 18.9143 16.7946 -5.00364 -6.89822 232.774 8.14978
lowerback 3.57832 -0.920887 1.16507
upperback 2.90607 -1.32201 2.28713
thorax 1.0055 -0.712817 1.72675
lowerneck -6.99329 -4.02854 -2.76152
upperneck 4.10247 -5.19707 1.33258
head 2.6362 -2.58762 0.671303
rclavicle 9.4811e-014 -1.72943e-014
rhumerus -29.9324 -4.89648 -80.0083
rradius 28.0053
rwrist 5.69808
rhand -23.009 36.4481
rfingers 7.12502
rthumb 3.43441 6.49604
lclavicle 9.4811e-014 -1.72943e-014
lhumerus -21.7045 7.07695 83.8994
lradius 37.9734
lwrist 5.00787
lhand -10.9121 46.9254
lfingers 7.12502
lthumb 15.1052 76.3542
rfemur -8.97384 -10.3835 29.3316
rtibia 22.6317
rfoot -13.058 -10.0929
rtoes -1.76417
lfemur -20.2659 3.01916 -11.3837
ltibia 61.1695
lfoot -8.09879 -11.8978
ltoes -0.768672
1754
root 18.869 16.7865 -5.05528 -6.47232 231.899 7.90531
lowerback 3.60121 -0.709852 1.13955
upperback 2.81427 -1.03392 2.25502
thorax 0.89172 -0.566897 1.70168
lowerneck -7.15954 -3.87559 -2.9998
upperneck 4.40161 -4.97242 1.41912
head 2.77439 -2.47709 0.745459
rclavicle -8.75398e-014 2.00648e-014
rhumerus -29.7419 -5.04372 -79.996
rradius 28.0543
rwrist 5.87952
rhand -22.7403 36.9399
rfingers 7.12502
rthumb 3.69389 6.99213
lclavicle -8.75398e-014 2.00648e-014
lhumerus -21.9203 6.97361 83.8016
lradius 38.6081
lwrist 5.79973
lhand -10.9813 46.7002
lfingers 7.12502
lthumb 15.0385 76.134
rfemur -9.03594 -9.89147 29.3199
rtibia 22.86
rfoot -13.5376 -9.83539
rtoes 0.435961
lfemur -21.1969 3.91675 -11.7425
ltibia 60.5156
lfoot -8.92657 -11.7916
ltoes -1.01078
1755
root 18.8158 16.7848 -5.1102 -6.00005 231.355 7.49348
lowerback 3.50917 -0.555089 1.12554
upperback 2.84196 -0.826194 2.08995
thorax 0.964529 -0.459876 1.53287
lowerneck -7.37841 -3.91076 -2.57082
upperneck 4.45676 -5.03357 1.0584
head 2.80928 -2.51159 0.547508
rclavicle 1.74767e-014 -7.29912e-015
rhumerus -29.5057 -4.99216 -80.221
rradius 28.2474
rwrist 5.45141
rhand -22.7416 37.6333
rfingers 7.12502
rthumb 3.69268 7.68556
lclavicle 1.74767e-014 -7.29912e-015
lhumerus -21.9878 6.75135 83.6591
lradius 39.2261
lwrist 6.40336
lhand -11.0032 46.2787
lfingers 7.12502
lthumb 15.0174 75.7141
rfemur -8.9661 -9.39867 29.1126
rtibia 23.1202
rfoot -14.1934 -9.69233
rtoes 1.1534
lfemur -21.986 4.39936 -12.2994
ltibia 59.6547
lfoot -9.53755 -12.0141
ltoes -3.30602
1756
root 18.7623 16.7774 -5.16372 -5.71212 231.073 7.17769
lowerback 3.55122 -0.48512 1.08841
upperback 2.89868 -0.732432 1.94805
thorax 0.995922 -0.411791 1.40567
lowerneck -7.70648 -3.71686 -2.85493
upperneck 4.92059 -4.75111 1.24682
head 3.03942 -2.36967 0.661955
rclavicle -4.59627e-014 -1.77415e-014
rhumerus -29.3027 -4.74744 -80.4872
rradius 28.6358
rwrist 4.83001
rhand -23.1218 37.9638
rfingers 7.12502
rthumb 3.32543 8.00999
lclavicle -4.59627e-014 -1.77415e-014
lhumerus -21.9776 6.53935 83.5508
lradius 39.6925
lwrist 6.80996
lhand -11.2041 45.9067
lfingers 7.12502
lthumb 14.8238 75.3565
rfemur -8.82125 -9.11741 28.9782
rtibia 23.3933
rfoot -14.3547 -10.1721
rtoes -0.978435
lfemur -22.6859 4.53001 -12.8075
ltibia 58.6215
lfoot -9.97745 -12.459
ltoes -6.32643
1757
root 18.7098 16.7644 -5.21598 -5.69744 230.864 7.13302
lowerback 3.85019 -0.559709 0.94342
upperback 2.85242 -0.831284 2.05901
thorax 0.786861 -0.465901 1.60769
lowerneck -7.26808 -3.74973 -2.39025
upperneck 4.29324 -4.81522 0.658904
head 2.71049 -2.41409 0.402662
rclavicle -7.79544e-014 3.893e-014
rhumerus -29.2302 -3.9238 -80.611
rradius 29.1206
rwrist 4.25317
rhand -23.3958 37.8908
rfingers 7.12502
rthumb 3.06086 7.93306
lclavicle -7.79544e-014 3.893e-014
lhumerus -22.1444 6.81314 83.5659
lradius 39.9851
lwrist 7.02791
lhand -11.3983 45.9397
lfingers 7.12502
lthumb 14.6368 75.4032
rfemur -8.59094 -8.97137 29.0004
rtibia 23.6088
rfoot -14.4143 -10.5808
rtoes -2.9412
lfemur -23.2885 4.66333 -13.1038
ltibia 57.4522
lfoot -10.8389 -10.9427
ltoes 6.114
1758
root 18.652 16.7541 -5.26969 -5.68 230.672 7.0476
lowerback 4.03589 -0.598645 0.998865
upperback 2.86223 -0.878705 2.00833
thorax 0.692717 -0.488995 1.52848
lowerneck -7.64421 -3.53751 -3.07008
upperneck 4.74332 -4.49259 1.28708
head 2.9689 -2.24389 0.728527
rclavicle 5.66878e-014 -1.7052e-014
rhumerus -29.2417 -3.6051 -80.7682
rradius 29.6125
rwrist 3.91666
rhand -23.3081 38.0637
rfingers 7.12502
rthumb 3.14557 8.10712
lclavicle 5.66878e-014 -1.7052e-014
lhumerus -22.3932 6.80712 83.4528
lradius 40.4255
lwrist 7.25309
lhand -11.6334 45.8222
lfingers 7.12502
lthumb 14.4103 75.3019
rfemur -8.26921 -8.91013 28.9331
rtibia 23.7704
rfoot -14.7965 -10.6277
rtoes -2.60528
lfemur -23.7317 4.74485 -13.4422
ltibia 56.1224
lfoot -11.2833 -9.11585
ltoes 19.0767
1759
root 18.5911 16.7512 -5.32527 -5.53251 230.297 6.86612
lowerback 4.00705 -0.452034 1.26017
upperback 2.90823 -0.673776 1.76756
thorax 0.746158 -0.379339 1.12731
lowerneck -7.49939 -3.66779 -2.73824
upperneck 4.4962 -4.69734 1.19287
head 2.84845 -2.34249 0.63413
rclavicle -4.11671e-014 2.23136e-014
rhumerus -29.5345 -3.12952 -81.2191
rradius 30.7093
rwrist 2.93631
rhand -23.8202 37.1006
rfingers 7.12502
rthumb 2.65099 7.13732
lclavicle -4.11671e-014 2.23136e-014
lhumerus -22.6683 6.29832 83.276
lradius 40.9578
lwrist 7.41635
lhand -11.8169 45.5841
lfingers 7.12502
lthumb 14.2334 75.0764
rfemur -7.93982 -8.6677 28.809
rtibia 23.8887
rfoot -15.4636 -10.3855
rtoes -0.348814
lfemur -24.1082 4.87204 -13.8182
ltibia 54.6081
lfoot -11.9746 -11.4528
ltoes 12.7034
1760
root 18.5327 16.7536 -5.37914 -5.37213 229.952 6.75481
lowerback 3.94265 -0.386594 1.42918
upperback 2.94138 -0.583459 1.67345
thorax 0.812698 -0.330496 0.932313
lowerneck -7.37981 -3.63103 -2.78798
upperneck 4.33874 -4.64298 1.14214
head 2.77116 -2.31833 0.632447
rclavicle 2.965e-014 8.99501e-015
rhumerus -29.3221 -3.42956 -81.2497
rradius 30.9269
rwrist 3.09363
rhand -23.7518 37.3083
rfingers 7.12502
rthumb 2.71709 7.34583
lclavicle 2.965e-014 8.99501e-015
lhumerus -22.79 6.08917 83.1482
lradius 41.1944
lwrist 7.44648
lhand -11.7124 45.3935
lfingers 7.12502
lthumb 14.3341 74.8787
rfemur -7.64336 -8.35491 28.7346
rtibia 23.9036
rfoot -16.0678 -10.0089
rtoes 2.19814
lfemur -24.5288 4.95259 -14.1433
ltibia 52.9217
lfoot -12.4379 -11.3266
ltoes 14.7457
1761
root 18.4757 16.7518 -5.44048 -5.36521 229.742 6.87176
lowerback 3.79958 -0.449133 1.55743
upperback 3.02722 -0.672547 1.67529
thorax 0.980168 -0.373842 0.863211
lowerneck -7.38586 -3.59709 -2.51394
upperneck 4.01031 -4.60595 0.832487
head 2.64245 -2.30533 0.490154
rclavicle 6.43938e-014 -9.98893e-015
rhumerus -29.0238 -3.142 -81.4297
rradius 31.2323
rwrist 2.91335
rhand -23.3342 37.8178
rfingers 7.12502
rthumb 3.12037 7.86085
lclavicle 6.43938e-014 -9.98893e-015
lhumerus -22.7551 6.12683 82.9701
lradius 41.2341
lwrist 7.46959
lhand -11.7866 45.1244
lfingers 7.12502
lthumb 14.2626 74.6147
rfemur -7.31929 -8.24492 28.8706
rtibia 23.793
rfoot -16.4551 -10.0376
rtoes 2.70482
lfemur -24.8979 4.93713 -14.3239
ltibia 51.0818
lfoot -12.9012 -11.2574
ltoes 12.3613
1762
root 18.4186 16.7511 -5.51378 -5.24284 229.408 6.94016
lowerback 3.56083 -0.423098 1.54006
upperback 3.0473 -0.643868 1.66124
thorax 1.13398 -0.358394 0.855252
lowerneck -7.45936 -3.49281 -2.33711
upperneck 4.00264 -4.47344 0.674914
head 2.6415 -2.24178 0.414392
rclavicle -5.52994e-014 1.54058e-014
rhumerus -28.9451 -2.9568 -81.6582
rradius 31.7302
rwrist 2.69337
rhand -23.0174 37.9761
rfingers 7.12502
rthumb 3.42626 8.02388
lclavicle -5.52994e-014 1.54058e-014
lhumerus -22.8796 6.22015 82.816
lradius 41.2201
lwrist 7.27223
lhand -11.7635 45.0319
lfingers 7.12502
lthumb 14.2849 74.5205
rfemur -6.96463 -7.94164 29.0444
rtibia 23.6182
rfoot -16.8883 -10.2436
rtoes 3.68399
lfemur -25.2479 4.97615 -14.4804
ltibia 49.0695
lfoot -13.0415 -11.698
ltoes 5.99136
